<svg xmlns="http://www.w3.org/2000/svg" viewBox="0 0 130 72" width="130px" height="72px">
  <path d="M35.308 19.5695L39.5431 31.286C43.5808 31.0363 47.6025 30.6562 51.6091 30.1455L41.8851 0H0V29.5479C3.69724 30.1161 8.00011 30.659 12.8196 31.0545V28.7315H20.2226C22.8738 28.7315 24.6102 29.994 25.4148 31.6395C26.1602 31.6395 26.9183 31.6395 27.6806 31.6395C31.1958 31.6395 34.7038 31.5413 38.2048 31.345C37.3832 28.4284 35.4097 25.4152 31.4033 23.4077C33.0589 22.5412 34.418 21.2052 35.308 19.5695ZM20.2226 19.6032H12.8196V10.6854H20.2226C26.6303 10.6854 26.4186 19.6032 20.2226 19.6032Z" fill="#76BF49"/>
  <path d="M45.1165 46.6384L46.387 50.0979H58.0676L60.346 43.7683C55.3315 44.9637 50.255 45.9205 45.1165 46.6384Z" fill="#76BF49"/>
  <path d="M40.2971 33.3397L44.1086 43.92L44.3586 44.6102C50.0223 43.8306 55.6404 42.7515 61.1888 41.378L61.6503 40.1154L65.3094 30.015C57.054 31.6648 48.6984 32.7754 40.2971 33.3397Z" fill="black"/>
  <path d="M104.683 26.0001C101.643 27.7761 98.377 29.5353 94.8662 31.2734C96.6918 34.3077 95.0737 38.9918 89.8772 38.9918H82.4572V36.7823C78.2448 38.4657 73.973 39.9555 69.6418 41.2517V50.0897H90.2078C101.388 50.0897 106.869 45.2079 108.152 37.14C108.668 34.1436 108.249 29.5226 104.683 26.0001Z" fill="#76BF49"/>
  <path d="M105.878 17.3771C94.1936 22.3981 82.0642 26.3248 69.6462 29.1062V39.0424C74.1567 37.6578 78.4298 36.1301 82.4616 34.5141V28.7316H89.869C90.4657 28.7277 91.0606 28.7999 91.6391 28.9463C92.2415 29.0951 92.8143 29.3441 93.333 29.6827C96.7763 27.9993 99.9908 26.2738 102.968 24.561C102.576 24.2854 102.17 24.0298 101.753 23.7951C101.528 23.6688 101.295 23.5425 101.058 23.4247C103.714 22.0653 105.234 19.5276 105.878 17.3771Z" fill="black"/>
  <path d="M106.246 14.9402C106.356 5.5931 99.3638 0 89.8647 0H62.5356L52.7947 29.994C57.2672 29.402 61.7197 28.6487 66.1522 27.7341L69.6419 18.0966V26.9849C82.202 24.1395 94.4593 20.1062 106.246 14.9402ZM82.4573 10.6854H89.8647C96.2724 10.6854 96.0605 19.6032 89.8647 19.6032H82.4573V10.6854Z" fill="#76BF49"/>
  <path d="M38.6114 33.4407C34.7998 33.6638 31.1619 33.7606 27.6806 33.7606H25.9315C26.0078 36.3614 24.1231 39.0001 20.2226 39.0001H12.8196V33.1714C8.00856 32.7842 3.71418 32.2497 0 31.6858V44.8457C7.14766 45.7204 14.3423 46.1621 21.5439 46.1673C25.9541 46.1673 30.2372 46.0044 34.3932 45.679C34.5754 45.5022 34.749 45.3254 34.9184 45.1405C36.8454 43.0361 38.0143 40.3469 38.5225 37.1442C38.7249 35.9198 38.7549 34.6734 38.6114 33.4407Z" fill="black"/>
  <path d="M0 46.9491V50.0664H20.5321C24.8422 50.0664 28.3029 49.3386 30.9988 47.963C27.8494 48.1341 24.6816 48.221 21.4955 48.2236C14.3112 48.2279 7.13306 47.8022 0 46.9491Z" fill="#76BF49"/>
  <path d="M0 71.3021V56.6277H2.70058V69.0756H9.26393V71.3021H0Z" fill="#76BF49"/>
  <path d="M24.3348 63.9651C24.3753 65.3723 24.0663 66.7682 23.4346 68.031C22.8847 69.1028 22.0358 69.9978 20.9876 70.6115C19.9244 71.2191 18.7131 71.5299 17.484 71.5104C16.2549 71.5299 15.0436 71.2191 13.9804 70.6115C12.9361 69.9944 12.0895 69.1002 11.5377 68.031C10.9446 66.7587 10.6376 65.3753 10.6376 63.9755C10.6376 62.5757 10.9446 61.1919 11.5377 59.9196C12.0871 58.8478 12.9342 57.9519 13.9804 57.3352C15.0449 56.731 16.2556 56.422 17.484 56.4406C18.7126 56.4211 19.9235 56.7301 20.9876 57.3352C22.0351 57.9514 22.8836 58.8478 23.4346 59.9196C24.064 61.1759 24.373 62.5645 24.3348 63.9651ZM21.6173 63.9651C21.6465 63.0001 21.4678 62.0398 21.0932 61.1474C20.7878 60.439 20.2797 59.8331 19.6309 59.4035C18.9844 59.0172 18.2425 58.8128 17.4861 58.8128C16.7298 58.8128 15.9879 59.0172 15.3413 59.4035C14.6925 59.8331 14.1845 60.439 13.879 61.1474C13.1803 62.9642 13.1803 64.9699 13.879 66.7868C14.1833 67.4951 14.6917 68.0997 15.3413 68.5263C15.9879 68.9131 16.7298 69.1171 17.4861 69.1171C18.2425 69.1171 18.9844 68.9131 19.6309 68.5263C20.2812 68.0984 20.7897 67.4921 21.0932 66.7825C21.4676 65.89 21.6462 64.9302 21.6173 63.9651Z" fill="#76BF49"/>
  <path d="M36.8782 61.3141C36.7647 60.945 36.5966 60.5945 36.3795 60.2734C36.1725 59.97 35.917 59.7017 35.623 59.4787C35.3195 59.2574 34.9791 59.0897 34.6172 58.9834C34.2151 58.8671 33.7979 58.8097 33.3789 58.8127C32.6223 58.8006 31.8787 59.0076 31.2404 59.4078C30.5866 59.8352 30.0739 60.4411 29.7654 61.1516C29.0526 62.9585 29.0526 64.9629 29.7654 66.7699C30.0628 67.4834 30.5741 68.0901 31.2312 68.5098C31.8882 68.9294 32.6596 69.1412 33.4423 69.1174C34.122 69.1386 34.7968 68.996 35.4075 68.7012C35.9435 68.4255 36.3846 67.9998 36.6754 67.4778C36.9863 66.9077 37.1422 66.2681 37.1276 65.6216L37.7404 65.7128H33.7043V63.6318H39.7521V65.3925C39.7824 66.5326 39.5007 67.6597 38.9364 68.6554C38.4115 69.5574 37.6339 70.2912 36.6965 70.7696C35.6186 71.2874 34.4299 71.5419 33.2309 71.5125C32.032 71.4827 30.8578 71.1694 29.8077 70.5989C28.7632 69.9792 27.9224 69.0759 27.386 67.9977C26.7773 66.7487 26.479 65.3748 26.5154 63.9901C26.503 62.9062 26.6833 61.8288 27.048 60.8063C27.3566 59.9255 27.8456 59.1165 28.4849 58.4298C29.0885 57.7832 29.8285 57.2746 30.6529 56.9396C31.5107 56.5926 32.4304 56.4189 33.3577 56.428C34.1414 56.421 34.9208 56.5407 35.6653 56.7819C36.3538 57.0058 36.9974 57.3468 37.5671 57.7889C38.1172 58.218 38.5827 58.7427 38.9406 59.3369C39.302 59.9454 39.5416 60.6166 39.6464 61.3141H36.8782Z" fill="#76BF49"/>
  <path d="M45.0641 56.6277V71.3021H42.3641V56.6277H45.0641Z" fill="#76BF49"/>
  <path d="M56.095 60.6646C56.0737 60.3737 55.9871 60.0915 55.8406 59.8378C55.6946 59.5846 55.4926 59.3663 55.25 59.1995C54.6702 58.83 53.9872 58.6481 53.2974 58.6796C52.8021 58.6667 52.3089 58.7518 51.8474 58.929C51.483 59.0699 51.1636 59.3041 50.9223 59.6075C50.7104 59.8927 50.5964 60.2367 50.5968 60.5898C50.5886 60.8694 50.6636 61.146 50.8122 61.3846C50.96 61.6162 51.1593 61.8111 51.3955 61.9546C51.6598 62.1189 51.9436 62.2502 52.2405 62.3462C52.5386 62.4508 52.8419 62.5394 53.1492 62.6124L54.5441 62.9538C55.1009 63.0817 55.6452 63.2572 56.1712 63.478C56.6778 63.6889 57.1514 63.969 57.5783 64.3104C58.0138 64.6536 58.3622 65.0913 58.5962 65.5896C58.8302 66.0879 58.9433 66.6333 58.9268 67.1822C58.9428 67.9873 58.7097 68.7782 58.259 69.4502C57.7767 70.1309 57.1064 70.6608 56.3272 70.9775C55.3522 71.3704 54.304 71.5575 53.2506 71.5268C52.2201 71.5497 51.1957 71.3687 50.2376 70.9944C49.4333 70.6806 48.74 70.1426 48.2425 69.4459C47.7425 68.7056 47.4725 67.8382 47.4651 66.9488H50.1232C50.1436 67.4121 50.3104 67.8577 50.6007 68.2224C50.8919 68.5695 51.2733 68.8327 51.704 68.9839C52.1932 69.1564 52.7102 69.2406 53.2298 69.2337C53.7576 69.2441 54.2823 69.1551 54.7763 68.9714C55.1832 68.8232 55.5433 68.5721 55.8202 68.2432C56.0724 67.9299 56.2085 67.5405 56.205 67.1403C56.2137 66.7932 56.0915 66.4553 55.8627 66.1917C55.604 65.9146 55.2846 65.6994 54.9284 65.5633C54.4752 65.3744 54.0076 65.2214 53.5296 65.1052L51.8392 64.689C50.7693 64.4552 49.7731 63.9699 48.9359 63.2741C48.581 62.9555 48.301 62.5644 48.1164 62.1279C47.9314 61.6914 47.8465 61.2204 47.8664 60.748C47.8504 59.9338 48.1026 59.1369 48.5849 58.4756C49.0867 57.8079 49.7609 57.285 50.5375 56.9604C51.4223 56.587 52.377 56.4029 53.3394 56.4194C54.2966 56.399 55.2469 56.5836 56.1244 56.9604C56.8763 57.2854 57.5258 57.8027 58.0051 58.4588C58.4627 59.1032 58.7093 59.8698 58.711 60.6564L56.095 60.6646Z" fill="#76BF49"/>
  <path d="M60.6424 58.875V56.6277H72.5352V58.875H67.9285V71.319H65.2492V58.875H60.6424Z" fill="#76BF49"/>
  <path d="M77.5173 56.6277V71.3021H74.8046V56.6277H77.5173Z" fill="#76BF49"/>
  <path d="M93.2061 61.5803H90.4843C90.418 61.1667 90.2746 60.7687 90.0614 60.4065C89.8568 60.0724 89.5916 59.7777 89.2796 59.537C88.9629 59.2962 88.6049 59.113 88.2232 58.9959C87.8124 58.8727 87.3847 58.8109 86.9552 58.8126C86.1926 58.7988 85.4425 59.0076 84.7998 59.4121C84.1481 59.8421 83.6372 60.4493 83.3291 61.1598C82.9517 62.047 82.7714 63.0034 82.8009 63.965C82.771 64.9361 82.9525 65.9024 83.3334 66.7992C83.6264 67.5002 84.129 68.0975 84.7743 68.511C85.4195 68.9251 86.177 69.1364 86.9466 69.1174C87.376 69.1217 87.8033 69.0629 88.2145 68.9424C88.5945 68.8304 88.952 68.6541 89.2714 68.4225C89.5838 68.1947 89.8516 67.9125 90.0614 67.5901C90.2845 67.2405 90.4366 66.8519 90.5094 66.4453H93.2312C93.031 67.8338 92.3286 69.1049 91.2535 70.0245C90.6914 70.4999 90.0453 70.8698 89.3472 71.1149C88.5677 71.3828 87.7469 71.5151 86.9214 71.506C85.6921 71.5272 84.4805 71.216 83.4179 70.6071C82.3701 69.9951 81.5247 69.0975 80.9835 68.0227C80.3959 66.7482 80.0917 65.3648 80.0917 63.965C80.0917 62.5652 80.3959 61.1818 80.9835 59.9073C81.5316 58.8356 82.3771 57.9392 83.4223 57.3225C84.4818 56.7188 85.6886 56.4093 86.9128 56.4279C87.6988 56.4219 88.4806 56.5381 89.2289 56.7732C89.921 56.9902 90.5671 57.3303 91.1352 57.7763C91.6972 58.224 92.1652 58.775 92.5127 59.3995C92.8828 60.0763 93.1181 60.8166 93.2061 61.5803Z" fill="#76BF49"/>
  <path d="M103.789 60.6646C103.767 60.3742 103.679 60.092 103.533 59.8383C103.387 59.585 103.185 59.3668 102.943 59.1995C102.364 58.8292 101.681 58.6472 100.99 58.6796C100.495 58.6675 100.002 58.7527 99.541 58.929C99.177 59.0686 98.8585 59.3032 98.6197 59.6075C98.4065 59.8923 98.2913 60.2363 98.29 60.5898C98.2822 60.8694 98.3571 61.146 98.5058 61.3846C98.6548 61.6162 98.8555 61.8111 99.0929 61.9546C99.3495 62.1171 99.6246 62.2485 99.9128 62.3462C100.211 62.4508 100.514 62.5394 100.821 62.6124L102.22 62.9538C102.777 63.083 103.321 63.2585 103.847 63.478C104.352 63.6902 104.824 63.9703 105.251 64.3104C105.663 64.6402 105.999 65.0533 106.236 65.5214C106.489 66.04 106.614 66.6109 106.599 67.1861C106.617 67.9917 106.384 68.7834 105.931 69.4546C105.449 70.1348 104.779 70.6651 104 70.9819C103.032 71.3717 101.993 71.5588 100.948 71.5312C99.9163 71.5541 98.8901 71.373 97.9307 70.9983C97.1269 70.6828 96.4336 70.1434 95.9361 69.4459C95.436 68.706 95.1674 67.8378 95.1626 66.9488H97.8168C97.8363 67.413 98.0048 67.859 98.2986 68.2224C98.5881 68.5712 98.9699 68.8348 99.4015 68.9839C99.8894 69.1564 100.405 69.2411 100.923 69.2337C101.451 69.2441 101.976 69.1551 102.47 68.9718C102.877 68.824 103.237 68.5729 103.514 68.2432C103.767 67.9303 103.904 67.5409 103.902 67.1403C103.911 66.7932 103.789 66.4553 103.56 66.1917C103.3 65.9164 102.981 65.7016 102.626 65.5633C102.171 65.3744 101.702 65.2214 101.223 65.1052L99.5323 64.689C98.4616 64.4552 97.464 63.9699 96.6247 63.2741C96.2715 62.9547 95.9929 62.5631 95.8091 62.1266C95.625 61.6906 95.54 61.2199 95.56 60.748C95.5426 59.9342 95.7931 59.1373 96.2741 58.4756C96.7776 57.8079 97.4532 57.285 98.231 56.9604C99.1155 56.5875 100.071 56.4029 101.033 56.4198C101.989 56.399 102.937 56.5836 103.814 56.9604C104.565 57.2854 105.215 57.8027 105.694 58.4588C106.154 59.1023 106.4 59.8698 106.4 60.6564L103.789 60.6646Z" fill="#76BF49"/>
  <path d="M129.77 5.27346C130.227 5.93784 130.295 6.03335 127.706 7.74419L122.892 10.9291C120.354 12.5901 118.502 13.5203 117.816 13.2462C117.081 12.9473 115.702 12.3617 114.991 12.0711C114.952 12.0533 114.918 12.0257 114.894 11.9912C114.869 11.9566 114.854 11.9163 114.85 11.8742C114.846 11.8322 114.854 11.7898 114.871 11.7515C114.89 11.7131 114.918 11.6802 114.953 11.6558L115.947 10.9997C115.992 10.9679 116.048 10.9532 116.103 10.9582L118.066 11.1326C118.123 11.1391 118.18 11.1259 118.227 11.0952L120.79 9.40101C120.825 9.37569 120.852 9.34185 120.869 9.30282C120.887 9.26384 120.893 9.2211 120.887 9.17892C120.883 9.13678 120.866 9.09672 120.84 9.06279C120.814 9.02887 120.78 9.00229 120.74 8.98578L117.427 7.76079C117.388 7.74428 117.353 7.7177 117.327 7.68377C117.301 7.64985 117.285 7.60978 117.279 7.5676C117.274 7.52547 117.28 7.48273 117.298 7.4437C117.315 7.40472 117.342 7.37084 117.377 7.34555L118.401 6.66868C118.446 6.63869 118.501 6.62413 118.557 6.62715L124.195 7.09641C124.252 7.10289 124.309 7.08966 124.356 7.05902C125.202 6.50675 125.942 6.04579 126.374 5.81328C127.021 5.48937 129.407 4.74193 129.77 5.27346Z" fill="black"/>
</svg>
