<svg width="300" height="300" viewBox="0 0 300 300" xmlns="http://www.w3.org/2000/svg">
  <path d="M97.7351 135.377L109.458 167.932C120.634 167.238 131.767 166.182 142.857 164.763L115.941 81H0V163.103C10.2342 164.681 22.1449 166.19 35.4857 167.289V160.834H55.9776C63.3162 160.834 68.1227 164.342 70.35 168.915C72.4133 168.915 74.5117 168.915 76.6219 168.915C86.352 168.915 96.0626 168.642 105.754 168.096C103.479 159.992 98.0165 151.619 86.9265 146.041C91.5093 143.634 95.2715 139.921 97.7351 135.377ZM55.9776 135.47H35.4857V110.691H55.9776C73.7146 110.691 73.1284 135.47 55.9776 135.47Z" fill="#76BF49"/>
  <path d="M125 210.26L128.476 220H160.433L166.667 202.179C152.948 205.544 139.059 208.238 125 210.26Z" fill="#76BF49"/>
  <path d="M110.714 173.364L121.417 202.645L122.119 204.556C138.024 202.397 153.8 199.412 169.38 195.61L170.677 192.116L180.952 164.162C157.77 168.728 134.307 171.802 110.714 173.364Z" fill="black"/>
  <path d="M289.892 153.47C281.472 158.375 272.43 163.233 262.708 168.034C267.762 176.414 263.282 189.35 248.892 189.35H228.345V183.248C216.68 187.897 204.851 192.012 192.857 195.592V220H249.807C280.768 220 295.944 206.517 299.497 184.236C300.928 175.96 299.767 163.198 289.892 153.47Z" fill="#76BF49"/>
  <path d="M292.857 129.709C260.61 143.476 227.131 154.242 192.857 161.868V189.111C205.306 185.315 217.101 181.126 228.229 176.695V160.841H248.673C250.32 160.83 251.962 161.028 253.559 161.43C255.221 161.838 256.802 162.52 258.234 163.449C267.738 158.833 276.61 154.102 284.827 149.406C283.745 148.651 282.626 147.95 281.472 147.306C280.853 146.96 280.21 146.614 279.555 146.291C286.884 142.564 291.081 135.606 292.857 129.709Z" fill="black"/>
  <path d="M294.044 122.424C294.348 96.5076 275.038 81 248.804 81H173.33L146.429 164.162C158.78 162.521 171.076 160.432 183.318 157.896L192.955 131.175V155.819C227.642 147.93 261.493 136.747 294.044 122.424ZM228.348 110.627H248.804C266.5 110.627 265.915 135.353 248.804 135.353H228.348V110.627Z" fill="#76BF49"/>
  <path d="M106.896 173.809C96.3438 174.432 86.2721 174.702 76.6342 174.702H71.7918C72.0029 181.956 66.7853 189.316 55.9866 189.316H35.4914V173.058C22.1719 171.978 10.2828 170.487 0 168.914V205.621C19.7884 208.062 39.7069 209.293 59.6448 209.307C71.8543 209.307 83.7122 208.854 95.2182 207.946C95.7224 207.453 96.2031 206.96 96.6721 206.443C102.007 200.574 105.243 193.073 106.65 184.14C107.211 180.724 107.293 177.248 106.896 173.809Z" fill="black"/>
  <path d="M0 211.684V220H56.7729C68.6906 220 78.2599 218.059 85.7143 214.389C77.0058 214.845 68.2466 215.077 59.4368 215.084C39.5715 215.095 19.7235 213.96 0 211.684Z" fill="#76BF49"/>
</svg>
